<?xml version="1.0" encoding="utf-8"?>
<!-- Generator: Adobe Illustrator 25.3.1, SVG Export Plug-In . SVG Version: 6.00 Build 0)  -->
<svg version="1.1" id="Layer_1" xmlns="http://www.w3.org/2000/svg" xmlns:xlink="http://www.w3.org/1999/xlink" x="0px" y="0px"
	 viewBox="0 0 16 16" style="enable-background:new 0 0 16 16;" xml:space="preserve">
<style type="text/css">
	.st0{fill:#FFFFFF;}
</style>
<path class="st0" d="M8.6,7.3C8.6,7.3,8.6,7.4,8.6,7.3C8.6,7.3,8.6,7.3,8.6,7.3"/>
<path class="st0" d="M11.4,8.5C10.9,8.1,10,7.7,9.1,7.4c-0.3-0.1-0.6-0.2-1-0.3c-0.1,0,0,0,0,0c0.1,0.1,0.3,0.1,0.4,0.2
	c-0.2-0.1,0,0,0.1,0c0,0,0,0,0,0c0,0,0,0,0,0c0,0,0.2,0.1,0.2,0.1c0.1,0.1-0.1,0,0,0c0,0,0.1,0,0.1,0c0.1,0,0.2,0.1,0.2,0.1
	c0.2,0.1,0.4,0.2,0.6,0.4c0.3,0.2,0.4,0.5,0.4,0.7C10.1,9.1,9.4,9.6,8.6,10c-0.9,0.5-1.9,1-2.7,1.5c-0.9,0.6-1.5,1.3-1.6,2
	c-0.1,0.5,0.1,1,0.4,1.4c0,0,0.2,0.1,0.3,0.1c0.2,0.1,0.4,0.1,0.6,0.2c0.2,0,0.3,0.1,0.5,0.1c0,0,0.2,0,0.1,0
	c-0.5-0.8-0.5-1.6,0.1-2.4c0.5-0.6,1.4-1.2,2.4-1.8C10.2,10.5,12.5,9.6,11.4,8.5"/>
<path class="st0" d="M7.8,3.3C7.8,3.4,7.8,3.4,7.8,3.3C7.8,3.4,7.8,3.3,7.8,3.3"/>
<path class="st0" d="M6.4,5.4c0.1-0.5,0.5-1.1,1.1-1.8c0.2-0.2,0.4-0.5,0.6-0.8c0.1-0.1,0,0.1,0,0.1C8,3,7.9,3.1,7.8,3.3
	c0.1-0.1,0,0,0,0.1c0,0,0,0,0,0c0,0,0,0,0,0c0,0-0.1,0.1-0.1,0.2c-0.1,0.1,0-0.1,0,0c0,0,0,0.1-0.1,0.1c0,0.1-0.1,0.1-0.1,0.2
	C7.4,4.1,7.3,4.3,7.2,4.5c-0.1,0.4-0.1,0.7,0,1c0.2,0.6,0.6,1.2,1,1.9C8.6,8.1,8.9,9,9,9.9c0.1,1.1-0.1,2.3-0.7,3.3
	C8,14,7.5,14.6,7,15.1c0,0-0.1,0.1-0.2,0.1c-0.1,0.1-0.2,0.1-0.3,0.2c-0.1,0-0.1,0.1-0.2,0.1c0,0-0.1,0,0,0c0.8-0.8,1.4-1.9,1.7-3.1
	c0.2-1,0.2-2-0.1-3C7.8,8.7,7.4,7.9,7,7.3C6.6,6.6,6.3,6.1,6.4,5.4"/>
<path class="st0" d="M9.8,5.7C9.8,6.2,9.5,6.6,9,6.6C8.6,6.7,8.2,6.4,8.1,5.9C8.1,5.5,8.4,5,8.8,5C9.3,4.9,9.7,5.3,9.8,5.7"/>
<path class="st0" d="M8.2,2.1c0,0.5-0.4,0.9-1,0.9c-0.5,0-0.9-0.4-0.9-1c0-0.5,0.4-0.9,1-0.9C7.8,1.1,8.2,1.6,8.2,2.1"/>
</svg>
